%TF.GenerationSoftware,KiCad,Pcbnew,9.0.3*%
%TF.CreationDate,2025-07-31T16:39:17+03:00*%
%TF.ProjectId,BinaryCounter,42696e61-7279-4436-9f75-6e7465722e6b,V0.1*%
%TF.SameCoordinates,Original*%
%TF.FileFunction,Legend,Top*%
%TF.FilePolarity,Positive*%
%FSLAX46Y46*%
G04 Gerber Fmt 4.6, Leading zero omitted, Abs format (unit mm)*
G04 Created by KiCad (PCBNEW 9.0.3) date 2025-07-31 16:39:17*
%MOMM*%
%LPD*%
G01*
G04 APERTURE LIST*
%ADD10C,0.100000*%
%ADD11C,0.101600*%
%ADD12C,0.150000*%
%ADD13C,0.127000*%
%ADD14C,0.504000*%
%ADD15C,0.200000*%
%ADD16C,0.120000*%
G04 APERTURE END LIST*
D10*
X130432641Y-64742641D02*
X133432641Y-64742641D01*
X133432641Y-65241551D01*
X130432641Y-65241551D01*
X130432641Y-64742641D01*
G36*
X130432641Y-64742641D02*
G01*
X133432641Y-64742641D01*
X133432641Y-65241551D01*
X130432641Y-65241551D01*
X130432641Y-64742641D01*
G37*
X131632947Y-65716696D02*
X132235796Y-65716696D01*
X132235796Y-66272689D01*
X131632947Y-66272689D01*
X131632947Y-65716696D01*
G36*
X131632947Y-65716696D02*
G01*
X132235796Y-65716696D01*
X132235796Y-66272689D01*
X131632947Y-66272689D01*
X131632947Y-65716696D01*
G37*
X131620018Y-63739954D02*
X132222867Y-63739954D01*
X132222867Y-64295947D01*
X131620018Y-64295947D01*
X131620018Y-63739954D01*
G36*
X131620018Y-63739954D02*
G01*
X132222867Y-63739954D01*
X132222867Y-64295947D01*
X131620018Y-64295947D01*
X131620018Y-63739954D01*
G37*
X129346855Y-64287826D02*
X127225534Y-66409147D01*
X126518427Y-65702040D01*
X128639748Y-63580719D01*
X129346855Y-64287826D01*
G36*
X129346855Y-64287826D02*
G01*
X127225534Y-66409147D01*
X126518427Y-65702040D01*
X128639748Y-63580719D01*
X129346855Y-64287826D01*
G37*
X129346855Y-65702040D02*
X128639748Y-66409147D01*
X126518427Y-64287826D01*
X127225534Y-63580719D01*
X129346855Y-65702040D01*
G36*
X129346855Y-65702040D02*
G01*
X128639748Y-66409147D01*
X126518427Y-64287826D01*
X127225534Y-63580719D01*
X129346855Y-65702040D01*
G37*
X119432641Y-63494933D02*
X120432641Y-63494933D01*
X120432641Y-66494933D01*
X119432641Y-66494933D01*
X119432641Y-63494933D01*
G36*
X119432641Y-63494933D02*
G01*
X120432641Y-63494933D01*
X120432641Y-66494933D01*
X119432641Y-66494933D01*
X119432641Y-63494933D01*
G37*
X118432641Y-64494933D02*
X121432641Y-64494933D01*
X121432641Y-65494933D01*
X118432641Y-65494933D01*
X118432641Y-64494933D01*
G36*
X118432641Y-64494933D02*
G01*
X121432641Y-64494933D01*
X121432641Y-65494933D01*
X118432641Y-65494933D01*
X118432641Y-64494933D01*
G37*
X122432641Y-64494933D02*
X125432641Y-64494933D01*
X125432641Y-65494933D01*
X122432641Y-65494933D01*
X122432641Y-64494933D01*
G36*
X122432641Y-64494933D02*
G01*
X125432641Y-64494933D01*
X125432641Y-65494933D01*
X122432641Y-65494933D01*
X122432641Y-64494933D01*
G37*
D11*
X117814285Y-40511073D02*
X117814285Y-41239644D01*
X117814285Y-41239644D02*
X117857142Y-41325358D01*
X117857142Y-41325358D02*
X117900000Y-41368216D01*
X117900000Y-41368216D02*
X117985714Y-41411073D01*
X117985714Y-41411073D02*
X118157142Y-41411073D01*
X118157142Y-41411073D02*
X118242857Y-41368216D01*
X118242857Y-41368216D02*
X118285714Y-41325358D01*
X118285714Y-41325358D02*
X118328571Y-41239644D01*
X118328571Y-41239644D02*
X118328571Y-40511073D01*
X119228571Y-41411073D02*
X118714285Y-41411073D01*
X118971428Y-41411073D02*
X118971428Y-40511073D01*
X118971428Y-40511073D02*
X118885714Y-40639644D01*
X118885714Y-40639644D02*
X118799999Y-40725358D01*
X118799999Y-40725358D02*
X118714285Y-40768216D01*
D12*
X121692165Y-69396936D02*
X121692165Y-68596936D01*
X121692165Y-68596936D02*
X121882641Y-68596936D01*
X121882641Y-68596936D02*
X121996927Y-68635031D01*
X121996927Y-68635031D02*
X122073117Y-68711221D01*
X122073117Y-68711221D02*
X122111212Y-68787412D01*
X122111212Y-68787412D02*
X122149308Y-68939793D01*
X122149308Y-68939793D02*
X122149308Y-69054079D01*
X122149308Y-69054079D02*
X122111212Y-69206460D01*
X122111212Y-69206460D02*
X122073117Y-69282650D01*
X122073117Y-69282650D02*
X121996927Y-69358841D01*
X121996927Y-69358841D02*
X121882641Y-69396936D01*
X121882641Y-69396936D02*
X121692165Y-69396936D01*
X122835022Y-68863602D02*
X122835022Y-69396936D01*
X122644546Y-68558841D02*
X122454069Y-69130269D01*
X122454069Y-69130269D02*
X122949308Y-69130269D01*
X111692165Y-69396936D02*
X111692165Y-68596936D01*
X111692165Y-68596936D02*
X111882641Y-68596936D01*
X111882641Y-68596936D02*
X111996927Y-68635031D01*
X111996927Y-68635031D02*
X112073117Y-68711221D01*
X112073117Y-68711221D02*
X112111212Y-68787412D01*
X112111212Y-68787412D02*
X112149308Y-68939793D01*
X112149308Y-68939793D02*
X112149308Y-69054079D01*
X112149308Y-69054079D02*
X112111212Y-69206460D01*
X112111212Y-69206460D02*
X112073117Y-69282650D01*
X112073117Y-69282650D02*
X111996927Y-69358841D01*
X111996927Y-69358841D02*
X111882641Y-69396936D01*
X111882641Y-69396936D02*
X111692165Y-69396936D01*
X112415974Y-68596936D02*
X112911212Y-68596936D01*
X112911212Y-68596936D02*
X112644546Y-68901698D01*
X112644546Y-68901698D02*
X112758831Y-68901698D01*
X112758831Y-68901698D02*
X112835022Y-68939793D01*
X112835022Y-68939793D02*
X112873117Y-68977888D01*
X112873117Y-68977888D02*
X112911212Y-69054079D01*
X112911212Y-69054079D02*
X112911212Y-69244555D01*
X112911212Y-69244555D02*
X112873117Y-69320745D01*
X112873117Y-69320745D02*
X112835022Y-69358841D01*
X112835022Y-69358841D02*
X112758831Y-69396936D01*
X112758831Y-69396936D02*
X112530260Y-69396936D01*
X112530260Y-69396936D02*
X112454069Y-69358841D01*
X112454069Y-69358841D02*
X112415974Y-69320745D01*
X101692165Y-69396936D02*
X101692165Y-68596936D01*
X101692165Y-68596936D02*
X101882641Y-68596936D01*
X101882641Y-68596936D02*
X101996927Y-68635031D01*
X101996927Y-68635031D02*
X102073117Y-68711221D01*
X102073117Y-68711221D02*
X102111212Y-68787412D01*
X102111212Y-68787412D02*
X102149308Y-68939793D01*
X102149308Y-68939793D02*
X102149308Y-69054079D01*
X102149308Y-69054079D02*
X102111212Y-69206460D01*
X102111212Y-69206460D02*
X102073117Y-69282650D01*
X102073117Y-69282650D02*
X101996927Y-69358841D01*
X101996927Y-69358841D02*
X101882641Y-69396936D01*
X101882641Y-69396936D02*
X101692165Y-69396936D01*
X102454069Y-68673126D02*
X102492165Y-68635031D01*
X102492165Y-68635031D02*
X102568355Y-68596936D01*
X102568355Y-68596936D02*
X102758831Y-68596936D01*
X102758831Y-68596936D02*
X102835022Y-68635031D01*
X102835022Y-68635031D02*
X102873117Y-68673126D01*
X102873117Y-68673126D02*
X102911212Y-68749317D01*
X102911212Y-68749317D02*
X102911212Y-68825507D01*
X102911212Y-68825507D02*
X102873117Y-68939793D01*
X102873117Y-68939793D02*
X102415974Y-69396936D01*
X102415974Y-69396936D02*
X102911212Y-69396936D01*
X91692165Y-69396936D02*
X91692165Y-68596936D01*
X91692165Y-68596936D02*
X91882641Y-68596936D01*
X91882641Y-68596936D02*
X91996927Y-68635031D01*
X91996927Y-68635031D02*
X92073117Y-68711221D01*
X92073117Y-68711221D02*
X92111212Y-68787412D01*
X92111212Y-68787412D02*
X92149308Y-68939793D01*
X92149308Y-68939793D02*
X92149308Y-69054079D01*
X92149308Y-69054079D02*
X92111212Y-69206460D01*
X92111212Y-69206460D02*
X92073117Y-69282650D01*
X92073117Y-69282650D02*
X91996927Y-69358841D01*
X91996927Y-69358841D02*
X91882641Y-69396936D01*
X91882641Y-69396936D02*
X91692165Y-69396936D01*
X92911212Y-69396936D02*
X92454069Y-69396936D01*
X92682641Y-69396936D02*
X92682641Y-68596936D01*
X92682641Y-68596936D02*
X92606450Y-68711221D01*
X92606450Y-68711221D02*
X92530260Y-68787412D01*
X92530260Y-68787412D02*
X92454069Y-68825507D01*
X99075974Y-52527650D02*
X99218831Y-52575269D01*
X99218831Y-52575269D02*
X99266450Y-52622888D01*
X99266450Y-52622888D02*
X99314069Y-52718126D01*
X99314069Y-52718126D02*
X99314069Y-52860983D01*
X99314069Y-52860983D02*
X99266450Y-52956221D01*
X99266450Y-52956221D02*
X99218831Y-53003841D01*
X99218831Y-53003841D02*
X99123593Y-53051460D01*
X99123593Y-53051460D02*
X98742641Y-53051460D01*
X98742641Y-53051460D02*
X98742641Y-52051460D01*
X98742641Y-52051460D02*
X99075974Y-52051460D01*
X99075974Y-52051460D02*
X99171212Y-52099079D01*
X99171212Y-52099079D02*
X99218831Y-52146698D01*
X99218831Y-52146698D02*
X99266450Y-52241936D01*
X99266450Y-52241936D02*
X99266450Y-52337174D01*
X99266450Y-52337174D02*
X99218831Y-52432412D01*
X99218831Y-52432412D02*
X99171212Y-52480031D01*
X99171212Y-52480031D02*
X99075974Y-52527650D01*
X99075974Y-52527650D02*
X98742641Y-52527650D01*
X99742641Y-53051460D02*
X99742641Y-52384793D01*
X99742641Y-52575269D02*
X99790260Y-52480031D01*
X99790260Y-52480031D02*
X99837879Y-52432412D01*
X99837879Y-52432412D02*
X99933117Y-52384793D01*
X99933117Y-52384793D02*
X100028355Y-52384793D01*
X100790260Y-53051460D02*
X100790260Y-52051460D01*
X100790260Y-53003841D02*
X100695022Y-53051460D01*
X100695022Y-53051460D02*
X100504546Y-53051460D01*
X100504546Y-53051460D02*
X100409308Y-53003841D01*
X100409308Y-53003841D02*
X100361689Y-52956221D01*
X100361689Y-52956221D02*
X100314070Y-52860983D01*
X100314070Y-52860983D02*
X100314070Y-52575269D01*
X100314070Y-52575269D02*
X100361689Y-52480031D01*
X100361689Y-52480031D02*
X100409308Y-52432412D01*
X100409308Y-52432412D02*
X100504546Y-52384793D01*
X100504546Y-52384793D02*
X100695022Y-52384793D01*
X100695022Y-52384793D02*
X100790260Y-52432412D01*
X101790260Y-53051460D02*
X101218832Y-53051460D01*
X101504546Y-53051460D02*
X101504546Y-52051460D01*
X101504546Y-52051460D02*
X101409308Y-52194317D01*
X101409308Y-52194317D02*
X101314070Y-52289555D01*
X101314070Y-52289555D02*
X101218832Y-52337174D01*
X140814301Y-71324250D02*
X140338110Y-71657583D01*
X140814301Y-71895678D02*
X139814301Y-71895678D01*
X139814301Y-71895678D02*
X139814301Y-71514726D01*
X139814301Y-71514726D02*
X139861920Y-71419488D01*
X139861920Y-71419488D02*
X139909539Y-71371869D01*
X139909539Y-71371869D02*
X140004777Y-71324250D01*
X140004777Y-71324250D02*
X140147634Y-71324250D01*
X140147634Y-71324250D02*
X140242872Y-71371869D01*
X140242872Y-71371869D02*
X140290491Y-71419488D01*
X140290491Y-71419488D02*
X140338110Y-71514726D01*
X140338110Y-71514726D02*
X140338110Y-71895678D01*
X140814301Y-70371869D02*
X140814301Y-70943297D01*
X140814301Y-70657583D02*
X139814301Y-70657583D01*
X139814301Y-70657583D02*
X139957158Y-70752821D01*
X139957158Y-70752821D02*
X140052396Y-70848059D01*
X140052396Y-70848059D02*
X140100015Y-70943297D01*
X82717833Y-70068914D02*
X82765452Y-69926057D01*
X82765452Y-69926057D02*
X82765452Y-69687962D01*
X82765452Y-69687962D02*
X82717833Y-69592724D01*
X82717833Y-69592724D02*
X82670213Y-69545105D01*
X82670213Y-69545105D02*
X82574975Y-69497486D01*
X82574975Y-69497486D02*
X82479737Y-69497486D01*
X82479737Y-69497486D02*
X82384499Y-69545105D01*
X82384499Y-69545105D02*
X82336880Y-69592724D01*
X82336880Y-69592724D02*
X82289261Y-69687962D01*
X82289261Y-69687962D02*
X82241642Y-69878438D01*
X82241642Y-69878438D02*
X82194023Y-69973676D01*
X82194023Y-69973676D02*
X82146404Y-70021295D01*
X82146404Y-70021295D02*
X82051166Y-70068914D01*
X82051166Y-70068914D02*
X81955928Y-70068914D01*
X81955928Y-70068914D02*
X81860690Y-70021295D01*
X81860690Y-70021295D02*
X81813071Y-69973676D01*
X81813071Y-69973676D02*
X81765452Y-69878438D01*
X81765452Y-69878438D02*
X81765452Y-69640343D01*
X81765452Y-69640343D02*
X81813071Y-69497486D01*
X81765452Y-69164152D02*
X82765452Y-68926057D01*
X82765452Y-68926057D02*
X82051166Y-68735581D01*
X82051166Y-68735581D02*
X82765452Y-68545105D01*
X82765452Y-68545105D02*
X81765452Y-68307010D01*
X81860690Y-67973676D02*
X81813071Y-67926057D01*
X81813071Y-67926057D02*
X81765452Y-67830819D01*
X81765452Y-67830819D02*
X81765452Y-67592724D01*
X81765452Y-67592724D02*
X81813071Y-67497486D01*
X81813071Y-67497486D02*
X81860690Y-67449867D01*
X81860690Y-67449867D02*
X81955928Y-67402248D01*
X81955928Y-67402248D02*
X82051166Y-67402248D01*
X82051166Y-67402248D02*
X82194023Y-67449867D01*
X82194023Y-67449867D02*
X82765452Y-68021295D01*
X82765452Y-68021295D02*
X82765452Y-67402248D01*
X140697460Y-54989307D02*
X140221269Y-55322640D01*
X140697460Y-55560735D02*
X139697460Y-55560735D01*
X139697460Y-55560735D02*
X139697460Y-55179783D01*
X139697460Y-55179783D02*
X139745079Y-55084545D01*
X139745079Y-55084545D02*
X139792698Y-55036926D01*
X139792698Y-55036926D02*
X139887936Y-54989307D01*
X139887936Y-54989307D02*
X140030793Y-54989307D01*
X140030793Y-54989307D02*
X140126031Y-55036926D01*
X140126031Y-55036926D02*
X140173650Y-55084545D01*
X140173650Y-55084545D02*
X140221269Y-55179783D01*
X140221269Y-55179783D02*
X140221269Y-55560735D01*
X139697460Y-54655973D02*
X139697460Y-54036926D01*
X139697460Y-54036926D02*
X140078412Y-54370259D01*
X140078412Y-54370259D02*
X140078412Y-54227402D01*
X140078412Y-54227402D02*
X140126031Y-54132164D01*
X140126031Y-54132164D02*
X140173650Y-54084545D01*
X140173650Y-54084545D02*
X140268888Y-54036926D01*
X140268888Y-54036926D02*
X140506983Y-54036926D01*
X140506983Y-54036926D02*
X140602221Y-54084545D01*
X140602221Y-54084545D02*
X140649841Y-54132164D01*
X140649841Y-54132164D02*
X140697460Y-54227402D01*
X140697460Y-54227402D02*
X140697460Y-54513116D01*
X140697460Y-54513116D02*
X140649841Y-54608354D01*
X140649841Y-54608354D02*
X140602221Y-54655973D01*
X140697460Y-47008527D02*
X140221269Y-47341860D01*
X140697460Y-47579955D02*
X139697460Y-47579955D01*
X139697460Y-47579955D02*
X139697460Y-47199003D01*
X139697460Y-47199003D02*
X139745079Y-47103765D01*
X139745079Y-47103765D02*
X139792698Y-47056146D01*
X139792698Y-47056146D02*
X139887936Y-47008527D01*
X139887936Y-47008527D02*
X140030793Y-47008527D01*
X140030793Y-47008527D02*
X140126031Y-47056146D01*
X140126031Y-47056146D02*
X140173650Y-47103765D01*
X140173650Y-47103765D02*
X140221269Y-47199003D01*
X140221269Y-47199003D02*
X140221269Y-47579955D01*
X140030793Y-46151384D02*
X140697460Y-46151384D01*
X139649841Y-46389479D02*
X140364126Y-46627574D01*
X140364126Y-46627574D02*
X140364126Y-46008527D01*
X101753110Y-89107041D02*
X101800729Y-88964184D01*
X101800729Y-88964184D02*
X101800729Y-88726089D01*
X101800729Y-88726089D02*
X101753110Y-88630851D01*
X101753110Y-88630851D02*
X101705490Y-88583232D01*
X101705490Y-88583232D02*
X101610252Y-88535613D01*
X101610252Y-88535613D02*
X101515014Y-88535613D01*
X101515014Y-88535613D02*
X101419776Y-88583232D01*
X101419776Y-88583232D02*
X101372157Y-88630851D01*
X101372157Y-88630851D02*
X101324538Y-88726089D01*
X101324538Y-88726089D02*
X101276919Y-88916565D01*
X101276919Y-88916565D02*
X101229300Y-89011803D01*
X101229300Y-89011803D02*
X101181681Y-89059422D01*
X101181681Y-89059422D02*
X101086443Y-89107041D01*
X101086443Y-89107041D02*
X100991205Y-89107041D01*
X100991205Y-89107041D02*
X100895967Y-89059422D01*
X100895967Y-89059422D02*
X100848348Y-89011803D01*
X100848348Y-89011803D02*
X100800729Y-88916565D01*
X100800729Y-88916565D02*
X100800729Y-88678470D01*
X100800729Y-88678470D02*
X100848348Y-88535613D01*
X100800729Y-88202279D02*
X101800729Y-87964184D01*
X101800729Y-87964184D02*
X101086443Y-87773708D01*
X101086443Y-87773708D02*
X101800729Y-87583232D01*
X101800729Y-87583232D02*
X100800729Y-87345137D01*
X101134062Y-86535613D02*
X101800729Y-86535613D01*
X100753110Y-86773708D02*
X101467395Y-87011803D01*
X101467395Y-87011803D02*
X101467395Y-86392756D01*
X140697460Y-63468527D02*
X140221269Y-63801860D01*
X140697460Y-64039955D02*
X139697460Y-64039955D01*
X139697460Y-64039955D02*
X139697460Y-63659003D01*
X139697460Y-63659003D02*
X139745079Y-63563765D01*
X139745079Y-63563765D02*
X139792698Y-63516146D01*
X139792698Y-63516146D02*
X139887936Y-63468527D01*
X139887936Y-63468527D02*
X140030793Y-63468527D01*
X140030793Y-63468527D02*
X140126031Y-63516146D01*
X140126031Y-63516146D02*
X140173650Y-63563765D01*
X140173650Y-63563765D02*
X140221269Y-63659003D01*
X140221269Y-63659003D02*
X140221269Y-64039955D01*
X139792698Y-63087574D02*
X139745079Y-63039955D01*
X139745079Y-63039955D02*
X139697460Y-62944717D01*
X139697460Y-62944717D02*
X139697460Y-62706622D01*
X139697460Y-62706622D02*
X139745079Y-62611384D01*
X139745079Y-62611384D02*
X139792698Y-62563765D01*
X139792698Y-62563765D02*
X139887936Y-62516146D01*
X139887936Y-62516146D02*
X139983174Y-62516146D01*
X139983174Y-62516146D02*
X140126031Y-62563765D01*
X140126031Y-62563765D02*
X140697460Y-63135193D01*
X140697460Y-63135193D02*
X140697460Y-62516146D01*
X82689008Y-50979943D02*
X82736627Y-50837086D01*
X82736627Y-50837086D02*
X82736627Y-50598991D01*
X82736627Y-50598991D02*
X82689008Y-50503753D01*
X82689008Y-50503753D02*
X82641388Y-50456134D01*
X82641388Y-50456134D02*
X82546150Y-50408515D01*
X82546150Y-50408515D02*
X82450912Y-50408515D01*
X82450912Y-50408515D02*
X82355674Y-50456134D01*
X82355674Y-50456134D02*
X82308055Y-50503753D01*
X82308055Y-50503753D02*
X82260436Y-50598991D01*
X82260436Y-50598991D02*
X82212817Y-50789467D01*
X82212817Y-50789467D02*
X82165198Y-50884705D01*
X82165198Y-50884705D02*
X82117579Y-50932324D01*
X82117579Y-50932324D02*
X82022341Y-50979943D01*
X82022341Y-50979943D02*
X81927103Y-50979943D01*
X81927103Y-50979943D02*
X81831865Y-50932324D01*
X81831865Y-50932324D02*
X81784246Y-50884705D01*
X81784246Y-50884705D02*
X81736627Y-50789467D01*
X81736627Y-50789467D02*
X81736627Y-50551372D01*
X81736627Y-50551372D02*
X81784246Y-50408515D01*
X81736627Y-50075181D02*
X82736627Y-49837086D01*
X82736627Y-49837086D02*
X82022341Y-49646610D01*
X82022341Y-49646610D02*
X82736627Y-49456134D01*
X82736627Y-49456134D02*
X81736627Y-49218039D01*
X82736627Y-48313277D02*
X82736627Y-48884705D01*
X82736627Y-48598991D02*
X81736627Y-48598991D01*
X81736627Y-48598991D02*
X81879484Y-48694229D01*
X81879484Y-48694229D02*
X81974722Y-48789467D01*
X81974722Y-48789467D02*
X82022341Y-48884705D01*
X82719972Y-89107041D02*
X82767591Y-88964184D01*
X82767591Y-88964184D02*
X82767591Y-88726089D01*
X82767591Y-88726089D02*
X82719972Y-88630851D01*
X82719972Y-88630851D02*
X82672352Y-88583232D01*
X82672352Y-88583232D02*
X82577114Y-88535613D01*
X82577114Y-88535613D02*
X82481876Y-88535613D01*
X82481876Y-88535613D02*
X82386638Y-88583232D01*
X82386638Y-88583232D02*
X82339019Y-88630851D01*
X82339019Y-88630851D02*
X82291400Y-88726089D01*
X82291400Y-88726089D02*
X82243781Y-88916565D01*
X82243781Y-88916565D02*
X82196162Y-89011803D01*
X82196162Y-89011803D02*
X82148543Y-89059422D01*
X82148543Y-89059422D02*
X82053305Y-89107041D01*
X82053305Y-89107041D02*
X81958067Y-89107041D01*
X81958067Y-89107041D02*
X81862829Y-89059422D01*
X81862829Y-89059422D02*
X81815210Y-89011803D01*
X81815210Y-89011803D02*
X81767591Y-88916565D01*
X81767591Y-88916565D02*
X81767591Y-88678470D01*
X81767591Y-88678470D02*
X81815210Y-88535613D01*
X81767591Y-88202279D02*
X82767591Y-87964184D01*
X82767591Y-87964184D02*
X82053305Y-87773708D01*
X82053305Y-87773708D02*
X82767591Y-87583232D01*
X82767591Y-87583232D02*
X81767591Y-87345137D01*
X81767591Y-87059422D02*
X81767591Y-86440375D01*
X81767591Y-86440375D02*
X82148543Y-86773708D01*
X82148543Y-86773708D02*
X82148543Y-86630851D01*
X82148543Y-86630851D02*
X82196162Y-86535613D01*
X82196162Y-86535613D02*
X82243781Y-86487994D01*
X82243781Y-86487994D02*
X82339019Y-86440375D01*
X82339019Y-86440375D02*
X82577114Y-86440375D01*
X82577114Y-86440375D02*
X82672352Y-86487994D01*
X82672352Y-86487994D02*
X82719972Y-86535613D01*
X82719972Y-86535613D02*
X82767591Y-86630851D01*
X82767591Y-86630851D02*
X82767591Y-86916565D01*
X82767591Y-86916565D02*
X82719972Y-87011803D01*
X82719972Y-87011803D02*
X82672352Y-87059422D01*
D13*
%TO.C,U1*%
X116972641Y-60871641D02*
X116972641Y-43726641D01*
X118877641Y-62776641D02*
X132847641Y-62776641D01*
X121367641Y-41821641D02*
X121371369Y-40911369D01*
X121871369Y-40411641D02*
X129866641Y-40411641D01*
X130366641Y-40911641D02*
X130366641Y-41821641D01*
D10*
X132847641Y-41821641D02*
X118877641Y-41821641D01*
D13*
X132847641Y-41821641D02*
X118877641Y-41821641D01*
X134752641Y-60871641D02*
X134752641Y-43726641D01*
X116972641Y-43726641D02*
G75*
G02*
X118877641Y-41821641I1905001J-1D01*
G01*
X118877641Y-62776641D02*
G75*
G02*
X116972641Y-60871641I1J1905001D01*
G01*
X121371369Y-40911369D02*
G75*
G02*
X121871369Y-40411642I500018J-291D01*
G01*
X129866641Y-40411641D02*
G75*
G02*
X130366641Y-40911641I0J-500000D01*
G01*
X132847641Y-41821641D02*
G75*
G02*
X134752641Y-43726641I0J-1905000D01*
G01*
X134752641Y-60871641D02*
G75*
G02*
X132847641Y-62776641I-1905000J0D01*
G01*
D14*
X117164641Y-42062641D02*
G75*
G02*
X116660641Y-42062641I-252000J0D01*
G01*
X116660641Y-42062641D02*
G75*
G02*
X117164641Y-42062641I252000J0D01*
G01*
X118307641Y-42942641D02*
G75*
G02*
X117803641Y-42942641I-252000J0D01*
G01*
X117803641Y-42942641D02*
G75*
G02*
X118307641Y-42942641I252000J0D01*
G01*
D15*
%TO.C,D4*%
X119142641Y-72742641D02*
G75*
G02*
X118942641Y-72742641I-100000J0D01*
G01*
X118942641Y-72742641D02*
G75*
G02*
X119142641Y-72742641I100000J0D01*
G01*
D13*
X119742641Y-71176641D02*
X119742641Y-74308641D01*
X119742641Y-71176641D02*
G75*
G02*
X119742641Y-74308641I2506124J-1566000D01*
G01*
D15*
%TO.C,D3*%
X109142641Y-72742641D02*
G75*
G02*
X108942641Y-72742641I-100000J0D01*
G01*
X108942641Y-72742641D02*
G75*
G02*
X109142641Y-72742641I100000J0D01*
G01*
D13*
X109742641Y-71176641D02*
X109742641Y-74308641D01*
X109742641Y-71176641D02*
G75*
G02*
X109742641Y-74308641I2506124J-1566000D01*
G01*
D15*
%TO.C,D2*%
X99142641Y-72742641D02*
G75*
G02*
X98942641Y-72742641I-100000J0D01*
G01*
X98942641Y-72742641D02*
G75*
G02*
X99142641Y-72742641I100000J0D01*
G01*
D13*
X99742641Y-71176641D02*
X99742641Y-74308641D01*
X99742641Y-71176641D02*
G75*
G02*
X99742641Y-74308641I2506124J-1566000D01*
G01*
D15*
%TO.C,D1*%
X89142641Y-72742641D02*
G75*
G02*
X88942641Y-72742641I-100000J0D01*
G01*
X88942641Y-72742641D02*
G75*
G02*
X89142641Y-72742641I100000J0D01*
G01*
D13*
X89742641Y-71176641D02*
X89742641Y-74308641D01*
X89742641Y-71176641D02*
G75*
G02*
X89742641Y-74308641I2506124J-1566000D01*
G01*
D16*
%TO.C,Brd1*%
X113704641Y-43325641D02*
X113450641Y-43337641D01*
X113704641Y-59962641D02*
X113704641Y-43325641D01*
X110364641Y-59937641D02*
X113704641Y-59962641D01*
X110364641Y-43337641D02*
X113450641Y-43337641D01*
X95543641Y-40531641D02*
X95543641Y-42944641D01*
X105322641Y-42944641D02*
X95543641Y-42944641D01*
X105322641Y-40531641D02*
X105322641Y-42944641D01*
X95543641Y-40531641D02*
X105322641Y-40531641D01*
X87264641Y-43337641D02*
X110364641Y-43337641D01*
X87264641Y-59937641D02*
X87264641Y-43337641D01*
X110364641Y-59937641D02*
X87264641Y-59937641D01*
X86842641Y-67342641D02*
X86842641Y-40042641D01*
X114242641Y-67342641D02*
X86842641Y-67342641D01*
X114242641Y-40042641D02*
X114242641Y-67342641D01*
X86842641Y-40042641D02*
X114242641Y-40042641D01*
%TO.C,R1*%
X137322641Y-73202641D02*
X137322641Y-69362641D01*
X139162641Y-73202641D02*
X139162641Y-69362641D01*
%TO.C,SW2*%
X67451633Y-61750582D02*
X81421633Y-61750582D01*
X67451633Y-75720582D02*
X67451633Y-61750582D01*
X81421633Y-61750582D02*
X81421633Y-75720582D01*
X81421633Y-75720582D02*
X67451633Y-75720582D01*
%TO.C,R3*%
X137322641Y-56742641D02*
X137322641Y-52902641D01*
X139162641Y-56742641D02*
X139162641Y-52902641D01*
%TO.C,R4*%
X137322641Y-48761861D02*
X137322641Y-44921861D01*
X139162641Y-48761861D02*
X139162641Y-44921861D01*
%TO.C,SW4*%
X86486910Y-80788709D02*
X100456910Y-80788709D01*
X86486910Y-94758709D02*
X86486910Y-80788709D01*
X100456910Y-80788709D02*
X100456910Y-94758709D01*
X100456910Y-94758709D02*
X86486910Y-94758709D01*
%TO.C,R2*%
X137322641Y-65221861D02*
X137322641Y-61381861D01*
X139162641Y-65221861D02*
X139162641Y-61381861D01*
%TO.C,SW1*%
X67422808Y-42661611D02*
X81392808Y-42661611D01*
X67422808Y-56631611D02*
X67422808Y-42661611D01*
X81392808Y-42661611D02*
X81392808Y-56631611D01*
X81392808Y-56631611D02*
X67422808Y-56631611D01*
%TO.C,SW3*%
X67453772Y-80788709D02*
X81423772Y-80788709D01*
X67453772Y-94758709D02*
X67453772Y-80788709D01*
X81423772Y-80788709D02*
X81423772Y-94758709D01*
X81423772Y-94758709D02*
X67453772Y-94758709D01*
%TD*%
M02*
