%TF.GenerationSoftware,KiCad,Pcbnew,9.0.3*%
%TF.CreationDate,2025-07-31T16:39:17+03:00*%
%TF.ProjectId,BinaryCounter,42696e61-7279-4436-9f75-6e7465722e6b,V0.1*%
%TF.SameCoordinates,Original*%
%TF.FileFunction,Copper,L1,Top*%
%TF.FilePolarity,Positive*%
%FSLAX46Y46*%
G04 Gerber Fmt 4.6, Leading zero omitted, Abs format (unit mm)*
G04 Created by KiCad (PCBNEW 9.0.3) date 2025-07-31 16:39:17*
%MOMM*%
%LPD*%
G01*
G04 APERTURE LIST*
G04 Aperture macros list*
%AMRoundRect*
0 Rectangle with rounded corners*
0 $1 Rounding radius*
0 $2 $3 $4 $5 $6 $7 $8 $9 X,Y pos of 4 corners*
0 Add a 4 corners polygon primitive as box body*
4,1,4,$2,$3,$4,$5,$6,$7,$8,$9,$2,$3,0*
0 Add four circle primitives for the rounded corners*
1,1,$1+$1,$2,$3*
1,1,$1+$1,$4,$5*
1,1,$1+$1,$6,$7*
1,1,$1+$1,$8,$9*
0 Add four rect primitives between the rounded corners*
20,1,$1+$1,$2,$3,$4,$5,0*
20,1,$1+$1,$4,$5,$6,$7,0*
20,1,$1+$1,$6,$7,$8,$9,0*
20,1,$1+$1,$8,$9,$2,$3,0*%
G04 Aperture macros list end*
%TA.AperFunction,SMDPad,CuDef*%
%ADD10RoundRect,0.152400X1.063600X0.609600X-1.063600X0.609600X-1.063600X-0.609600X1.063600X-0.609600X0*%
%TD*%
%TA.AperFunction,ComponentPad*%
%ADD11C,1.524000*%
%TD*%
%TA.AperFunction,SMDPad,CuDef*%
%ADD12RoundRect,0.152400X-1.063600X-0.609600X1.063600X-0.609600X1.063600X0.609600X-1.063600X0.609600X0*%
%TD*%
%TA.AperFunction,ComponentPad*%
%ADD13R,1.815000X1.815000*%
%TD*%
%TA.AperFunction,ComponentPad*%
%ADD14C,1.815000*%
%TD*%
%TA.AperFunction,ComponentPad*%
%ADD15O,1.600000X2.000000*%
%TD*%
%TA.AperFunction,ComponentPad*%
%ADD16C,1.400000*%
%TD*%
%TA.AperFunction,ComponentPad*%
%ADD17C,2.200000*%
%TD*%
%TA.AperFunction,Conductor*%
%ADD18C,0.200000*%
%TD*%
G04 APERTURE END LIST*
D10*
%TO.P,U1,1,GPIO26/ADC0/A0*%
%TO.N,button1*%
X117407641Y-44742641D03*
D11*
X118242641Y-44742641D03*
D10*
%TO.P,U1,2,GPIO27/ADC1/A1*%
%TO.N,button2*%
X117407641Y-47282641D03*
D11*
X118242641Y-47282641D03*
D10*
%TO.P,U1,3,GPIO28/ADC2/A2*%
%TO.N,button3*%
X117407641Y-49822641D03*
D11*
X118242641Y-49822641D03*
D10*
%TO.P,U1,4,GPIO29/ADC3/A3*%
%TO.N,button4*%
X117407641Y-52362641D03*
D11*
X118242641Y-52362641D03*
D10*
%TO.P,U1,5,GPIO6/SDA*%
%TO.N,OLED_SDA*%
X117407641Y-54902641D03*
D11*
X118242641Y-54902641D03*
D10*
%TO.P,U1,6,GPIO7/SCL*%
%TO.N,OLED_SCL*%
X117407641Y-57442641D03*
D11*
X118242641Y-57442641D03*
D10*
%TO.P,U1,7,GPIO0/TX*%
%TO.N,unconnected-(U1-GPIO0{slash}TX-Pad7)*%
X117407641Y-59982641D03*
D11*
%TO.N,unconnected-(U1-GPIO0{slash}TX-Pad7)_1*%
X118242641Y-59982641D03*
%TO.P,U1,8,GPIO1/RX*%
%TO.N,LED1*%
X133482641Y-59982641D03*
D12*
X134317641Y-59982641D03*
D11*
%TO.P,U1,9,GPIO2/SCK*%
%TO.N,LED2*%
X133482641Y-57442641D03*
D12*
X134317641Y-57442641D03*
D11*
%TO.P,U1,10,GPIO4/MISO*%
%TO.N,LED3*%
X133482641Y-54902641D03*
D12*
X134317641Y-54902641D03*
D11*
%TO.P,U1,11,GPIO3/MOSI*%
%TO.N,LED4*%
X133482641Y-52362641D03*
D12*
X134317641Y-52362641D03*
D11*
%TO.P,U1,12,3V3*%
%TO.N,3V3*%
X133482641Y-49822641D03*
D12*
X134317641Y-49822641D03*
D11*
%TO.P,U1,13,GND*%
%TO.N,GND*%
X133482641Y-47282641D03*
D12*
X134317641Y-47282641D03*
D11*
%TO.P,U1,14,VBUS*%
%TO.N,unconnected-(U1-VBUS-Pad14)*%
X133482641Y-44742641D03*
D12*
%TO.N,unconnected-(U1-VBUS-Pad14)_1*%
X134317641Y-44742641D03*
%TD*%
D13*
%TO.P,D4,C*%
%TO.N,GND*%
X120972641Y-72742641D03*
D14*
%TO.P,D4,A*%
%TO.N,Net-(D4-PadA)*%
X123512641Y-72742641D03*
%TD*%
D13*
%TO.P,D3,C*%
%TO.N,GND*%
X110972641Y-72742641D03*
D14*
%TO.P,D3,A*%
%TO.N,Net-(D3-PadA)*%
X113512641Y-72742641D03*
%TD*%
D13*
%TO.P,D2,C*%
%TO.N,GND*%
X100972641Y-72742641D03*
D14*
%TO.P,D2,A*%
%TO.N,Net-(D2-PadA)*%
X103512641Y-72742641D03*
%TD*%
D13*
%TO.P,D1,C*%
%TO.N,GND*%
X90972641Y-72742641D03*
D14*
%TO.P,D1,A*%
%TO.N,Net-(D1-PadA)*%
X93512641Y-72742641D03*
%TD*%
D15*
%TO.P,Brd1,4,SDA*%
%TO.N,OLED_SDA*%
X104242641Y-41742641D03*
%TO.P,Brd1,3,SCL*%
%TO.N,OLED_SCL*%
X101702641Y-41742641D03*
%TO.P,Brd1,1,GND*%
%TO.N,GND*%
X96622641Y-41742641D03*
%TO.P,Brd1,2,VCC*%
%TO.N,3V3*%
X99162641Y-41742641D03*
%TD*%
D16*
%TO.P,R1,1*%
%TO.N,Net-(D1-PadA)*%
X138242641Y-73822641D03*
%TO.P,R1,2*%
%TO.N,LED1*%
X138242641Y-68742641D03*
%TD*%
D17*
%TO.P,SW2,1,1*%
%TO.N,button2*%
X79516633Y-71275582D03*
%TO.P,SW2,2,2*%
%TO.N,GND*%
X76976633Y-64925582D03*
%TD*%
D16*
%TO.P,R3,1*%
%TO.N,Net-(D3-PadA)*%
X138242641Y-57362641D03*
%TO.P,R3,2*%
%TO.N,LED3*%
X138242641Y-52282641D03*
%TD*%
%TO.P,R4,1*%
%TO.N,Net-(D4-PadA)*%
X138242641Y-49381861D03*
%TO.P,R4,2*%
%TO.N,LED4*%
X138242641Y-44301861D03*
%TD*%
D17*
%TO.P,SW4,1,1*%
%TO.N,button4*%
X98551910Y-90313709D03*
%TO.P,SW4,2,2*%
%TO.N,GND*%
X96011910Y-83963709D03*
%TD*%
D16*
%TO.P,R2,1*%
%TO.N,Net-(D2-PadA)*%
X138242641Y-65841861D03*
%TO.P,R2,2*%
%TO.N,LED2*%
X138242641Y-60761861D03*
%TD*%
D17*
%TO.P,SW1,1,1*%
%TO.N,button1*%
X79487808Y-52186611D03*
%TO.P,SW1,2,2*%
%TO.N,GND*%
X76947808Y-45836611D03*
%TD*%
%TO.P,SW3,1,1*%
%TO.N,button3*%
X79518772Y-90313709D03*
%TO.P,SW3,2,2*%
%TO.N,GND*%
X76978772Y-83963709D03*
%TD*%
D18*
%TO.N,button1*%
X79487808Y-52186611D02*
X85043838Y-57742641D01*
%TO.N,LED3*%
X138242641Y-53282641D02*
X136622641Y-54902641D01*
%TO.N,button1*%
X108242641Y-44742641D02*
X118242641Y-44742641D01*
X95242641Y-57742641D02*
X108242641Y-44742641D01*
%TO.N,LED3*%
X136622641Y-54902641D02*
X134317641Y-54902641D01*
%TO.N,button2*%
X111702641Y-47282641D02*
X117407641Y-47282641D01*
X87709700Y-71275582D02*
X111702641Y-47282641D01*
%TO.N,button3*%
X98242641Y-73742641D02*
X98242641Y-64742641D01*
%TO.N,OLED_SCL*%
X101702641Y-41980271D02*
X101702641Y-41742641D01*
X118242641Y-57442641D02*
X117165011Y-57442641D01*
%TO.N,button3*%
X98242641Y-64742641D02*
X113162641Y-49822641D01*
%TO.N,button1*%
X85043838Y-57742641D02*
X95242641Y-57742641D01*
%TO.N,OLED_SDA*%
X118242641Y-54902641D02*
X117402641Y-54902641D01*
%TO.N,LED4*%
X136180271Y-44301861D02*
X138242641Y-44301861D01*
%TO.N,button3*%
X113162641Y-49822641D02*
X118242641Y-49822641D01*
%TO.N,button4*%
X115622641Y-52362641D02*
X118242641Y-52362641D01*
%TO.N,LED4*%
X134560271Y-52362641D02*
X136180271Y-50742641D01*
%TO.N,button4*%
X105742641Y-83122978D02*
X105742641Y-62242641D01*
%TO.N,LED2*%
X138242641Y-60761861D02*
X137636861Y-60761861D01*
%TO.N,button2*%
X79516633Y-71275582D02*
X87709700Y-71275582D01*
%TO.N,LED4*%
X136180271Y-50742641D02*
X136180271Y-44301861D01*
X133482641Y-52362641D02*
X134560271Y-52362641D01*
%TO.N,button3*%
X79518772Y-90313709D02*
X81671573Y-90313709D01*
%TO.N,LED1*%
X138242641Y-68742641D02*
X137242641Y-68742641D01*
%TO.N,button4*%
X98551910Y-90313709D02*
X105742641Y-83122978D01*
%TO.N,LED3*%
X138242641Y-52282641D02*
X138242641Y-53282641D01*
%TO.N,button3*%
X81671573Y-90313709D02*
X98242641Y-73742641D01*
%TO.N,button4*%
X105742641Y-62242641D02*
X115622641Y-52362641D01*
%TO.N,LED1*%
X133482641Y-64982641D02*
X133482641Y-59982641D01*
X137242641Y-68742641D02*
X133482641Y-64982641D01*
%TO.N,LED2*%
X137636861Y-60761861D02*
X134317641Y-57442641D01*
%TD*%
M02*
