M48
; DRILL file {KiCad 9.0.3} date 2025-07-31T16:39:31+0300
; FORMAT={-:-/ absolute / metric / decimal}
; #@! TF.CreationDate,2025-07-31T16:39:31+03:00
; #@! TF.GenerationSoftware,Kicad,Pcbnew,9.0.3
; #@! TF.FileFunction,Plated,1,2,PTH
FMAT,2
METRIC
; #@! TA.AperFunction,Plated,PTH,ComponentDrill
T1C0.700
; #@! TA.AperFunction,Plated,PTH,ComponentDrill
T2C0.889
; #@! TA.AperFunction,Plated,PTH,ComponentDrill
T3C1.000
; #@! TA.AperFunction,Plated,PTH,ComponentDrill
T4C1.210
; #@! TA.AperFunction,Plated,PTH,ComponentDrill
T5C1.500
%
G90
G05
T1
X138.243Y-44.302
X138.243Y-49.382
X138.243Y-52.283
X138.243Y-57.363
X138.243Y-60.762
X138.243Y-65.842
X138.243Y-68.743
X138.243Y-73.823
T2
X118.243Y-44.743
X118.243Y-47.283
X118.243Y-49.823
X118.243Y-52.363
X118.243Y-54.903
X118.243Y-57.443
X118.243Y-59.983
X133.483Y-44.743
X133.483Y-47.283
X133.483Y-49.823
X133.483Y-52.363
X133.483Y-54.903
X133.483Y-57.443
X133.483Y-59.983
T3
X96.623Y-41.743
X99.163Y-41.743
X101.703Y-41.743
X104.243Y-41.743
T4
X90.973Y-72.743
X93.513Y-72.743
X100.973Y-72.743
X103.513Y-72.743
X110.973Y-72.743
X113.513Y-72.743
X120.973Y-72.743
X123.513Y-72.743
T5
X76.948Y-45.837
X76.977Y-64.926
X76.979Y-83.964
X79.488Y-52.187
X79.517Y-71.276
X79.519Y-90.314
X96.012Y-83.964
X98.552Y-90.314
M30
