%TF.GenerationSoftware,KiCad,Pcbnew,9.0.3*%
%TF.CreationDate,2025-07-31T16:39:18+03:00*%
%TF.ProjectId,BinaryCounter,42696e61-7279-4436-9f75-6e7465722e6b,V0.1*%
%TF.SameCoordinates,Original*%
%TF.FileFunction,Soldermask,Top*%
%TF.FilePolarity,Negative*%
%FSLAX46Y46*%
G04 Gerber Fmt 4.6, Leading zero omitted, Abs format (unit mm)*
G04 Created by KiCad (PCBNEW 9.0.3) date 2025-07-31 16:39:18*
%MOMM*%
%LPD*%
G01*
G04 APERTURE LIST*
G04 Aperture macros list*
%AMRoundRect*
0 Rectangle with rounded corners*
0 $1 Rounding radius*
0 $2 $3 $4 $5 $6 $7 $8 $9 X,Y pos of 4 corners*
0 Add a 4 corners polygon primitive as box body*
4,1,4,$2,$3,$4,$5,$6,$7,$8,$9,$2,$3,0*
0 Add four circle primitives for the rounded corners*
1,1,$1+$1,$2,$3*
1,1,$1+$1,$4,$5*
1,1,$1+$1,$6,$7*
1,1,$1+$1,$8,$9*
0 Add four rect primitives between the rounded corners*
20,1,$1+$1,$2,$3,$4,$5,0*
20,1,$1+$1,$4,$5,$6,$7,0*
20,1,$1+$1,$6,$7,$8,$9,0*
20,1,$1+$1,$8,$9,$2,$3,0*%
G04 Aperture macros list end*
%ADD10RoundRect,0.152400X1.063600X0.609600X-1.063600X0.609600X-1.063600X-0.609600X1.063600X-0.609600X0*%
%ADD11C,1.524000*%
%ADD12RoundRect,0.152400X-1.063600X-0.609600X1.063600X-0.609600X1.063600X0.609600X-1.063600X0.609600X0*%
%ADD13RoundRect,0.102000X-0.907500X-0.907500X0.907500X-0.907500X0.907500X0.907500X-0.907500X0.907500X0*%
%ADD14C,2.019000*%
%ADD15O,1.600000X2.000000*%
%ADD16C,1.400000*%
%ADD17C,1.700000*%
%ADD18C,4.000000*%
%ADD19C,2.200000*%
G04 APERTURE END LIST*
D10*
%TO.C,U1*%
X117407641Y-44742641D03*
D11*
X118242641Y-44742641D03*
D10*
X117407641Y-47282641D03*
D11*
X118242641Y-47282641D03*
D10*
X117407641Y-49822641D03*
D11*
X118242641Y-49822641D03*
D10*
X117407641Y-52362641D03*
D11*
X118242641Y-52362641D03*
D10*
X117407641Y-54902641D03*
D11*
X118242641Y-54902641D03*
D10*
X117407641Y-57442641D03*
D11*
X118242641Y-57442641D03*
D10*
X117407641Y-59982641D03*
D11*
X118242641Y-59982641D03*
X133482641Y-59982641D03*
D12*
X134317641Y-59982641D03*
D11*
X133482641Y-57442641D03*
D12*
X134317641Y-57442641D03*
D11*
X133482641Y-54902641D03*
D12*
X134317641Y-54902641D03*
D11*
X133482641Y-52362641D03*
D12*
X134317641Y-52362641D03*
D11*
X133482641Y-49822641D03*
D12*
X134317641Y-49822641D03*
D11*
X133482641Y-47282641D03*
D12*
X134317641Y-47282641D03*
D11*
X133482641Y-44742641D03*
D12*
X134317641Y-44742641D03*
%TD*%
D13*
%TO.C,D4*%
X120972641Y-72742641D03*
D14*
X123512641Y-72742641D03*
%TD*%
D13*
%TO.C,D3*%
X110972641Y-72742641D03*
D14*
X113512641Y-72742641D03*
%TD*%
D13*
%TO.C,D2*%
X100972641Y-72742641D03*
D14*
X103512641Y-72742641D03*
%TD*%
D13*
%TO.C,D1*%
X90972641Y-72742641D03*
D14*
X93512641Y-72742641D03*
%TD*%
D15*
%TO.C,Brd1*%
X104242641Y-41742641D03*
X101702641Y-41742641D03*
X96622641Y-41742641D03*
X99162641Y-41742641D03*
%TD*%
D16*
%TO.C,R1*%
X138242641Y-73822641D03*
X138242641Y-68742641D03*
%TD*%
D17*
%TO.C,SW2*%
X74436633Y-63655582D03*
D18*
X74436633Y-68735582D03*
D17*
X74436633Y-73815582D03*
D19*
X79516633Y-71275582D03*
X76976633Y-64925582D03*
%TD*%
D16*
%TO.C,R3*%
X138242641Y-57362641D03*
X138242641Y-52282641D03*
%TD*%
%TO.C,R4*%
X138242641Y-49381861D03*
X138242641Y-44301861D03*
%TD*%
D17*
%TO.C,SW4*%
X93471910Y-82693709D03*
D18*
X93471910Y-87773709D03*
D17*
X93471910Y-92853709D03*
D19*
X98551910Y-90313709D03*
X96011910Y-83963709D03*
%TD*%
D16*
%TO.C,R2*%
X138242641Y-65841861D03*
X138242641Y-60761861D03*
%TD*%
D17*
%TO.C,SW1*%
X74407808Y-44566611D03*
D18*
X74407808Y-49646611D03*
D17*
X74407808Y-54726611D03*
D19*
X79487808Y-52186611D03*
X76947808Y-45836611D03*
%TD*%
D17*
%TO.C,SW3*%
X74438772Y-82693709D03*
D18*
X74438772Y-87773709D03*
D17*
X74438772Y-92853709D03*
D19*
X79518772Y-90313709D03*
X76978772Y-83963709D03*
%TD*%
M02*
