%TF.GenerationSoftware,KiCad,Pcbnew,9.0.3*%
%TF.CreationDate,2025-07-31T16:39:17+03:00*%
%TF.ProjectId,BinaryCounter,42696e61-7279-4436-9f75-6e7465722e6b,V0.1*%
%TF.SameCoordinates,Original*%
%TF.FileFunction,Copper,L2,Bot*%
%TF.FilePolarity,Positive*%
%FSLAX46Y46*%
G04 Gerber Fmt 4.6, Leading zero omitted, Abs format (unit mm)*
G04 Created by KiCad (PCBNEW 9.0.3) date 2025-07-31 16:39:17*
%MOMM*%
%LPD*%
G01*
G04 APERTURE LIST*
%TA.AperFunction,ComponentPad*%
%ADD10C,1.524000*%
%TD*%
%TA.AperFunction,ComponentPad*%
%ADD11R,1.815000X1.815000*%
%TD*%
%TA.AperFunction,ComponentPad*%
%ADD12C,1.815000*%
%TD*%
%TA.AperFunction,ComponentPad*%
%ADD13O,1.600000X2.000000*%
%TD*%
%TA.AperFunction,ComponentPad*%
%ADD14C,1.400000*%
%TD*%
%TA.AperFunction,ComponentPad*%
%ADD15C,2.200000*%
%TD*%
%TA.AperFunction,Conductor*%
%ADD16C,0.200000*%
%TD*%
G04 APERTURE END LIST*
D10*
%TO.P,U1,1,GPIO26/ADC0/A0*%
%TO.N,button1*%
X118242641Y-44742641D03*
%TO.P,U1,2,GPIO27/ADC1/A1*%
%TO.N,button2*%
X118242641Y-47282641D03*
%TO.P,U1,3,GPIO28/ADC2/A2*%
%TO.N,button3*%
X118242641Y-49822641D03*
%TO.P,U1,4,GPIO29/ADC3/A3*%
%TO.N,button4*%
X118242641Y-52362641D03*
%TO.P,U1,5,GPIO6/SDA*%
%TO.N,OLED_SDA*%
X118242641Y-54902641D03*
%TO.P,U1,6,GPIO7/SCL*%
%TO.N,OLED_SCL*%
X118242641Y-57442641D03*
%TO.P,U1,7,GPIO0/TX*%
%TO.N,unconnected-(U1-GPIO0{slash}TX-Pad7)_1*%
X118242641Y-59982641D03*
%TO.P,U1,8,GPIO1/RX*%
%TO.N,LED1*%
X133482641Y-59982641D03*
%TO.P,U1,9,GPIO2/SCK*%
%TO.N,LED2*%
X133482641Y-57442641D03*
%TO.P,U1,10,GPIO4/MISO*%
%TO.N,LED3*%
X133482641Y-54902641D03*
%TO.P,U1,11,GPIO3/MOSI*%
%TO.N,LED4*%
X133482641Y-52362641D03*
%TO.P,U1,12,3V3*%
%TO.N,3V3*%
X133482641Y-49822641D03*
%TO.P,U1,13,GND*%
%TO.N,GND*%
X133482641Y-47282641D03*
%TO.P,U1,14,VBUS*%
%TO.N,unconnected-(U1-VBUS-Pad14)*%
X133482641Y-44742641D03*
%TD*%
D11*
%TO.P,D4,C*%
%TO.N,GND*%
X120972641Y-72742641D03*
D12*
%TO.P,D4,A*%
%TO.N,Net-(D4-PadA)*%
X123512641Y-72742641D03*
%TD*%
D11*
%TO.P,D3,C*%
%TO.N,GND*%
X110972641Y-72742641D03*
D12*
%TO.P,D3,A*%
%TO.N,Net-(D3-PadA)*%
X113512641Y-72742641D03*
%TD*%
D11*
%TO.P,D2,C*%
%TO.N,GND*%
X100972641Y-72742641D03*
D12*
%TO.P,D2,A*%
%TO.N,Net-(D2-PadA)*%
X103512641Y-72742641D03*
%TD*%
D11*
%TO.P,D1,C*%
%TO.N,GND*%
X90972641Y-72742641D03*
D12*
%TO.P,D1,A*%
%TO.N,Net-(D1-PadA)*%
X93512641Y-72742641D03*
%TD*%
D13*
%TO.P,Brd1,4,SDA*%
%TO.N,OLED_SDA*%
X104242641Y-41742641D03*
%TO.P,Brd1,3,SCL*%
%TO.N,OLED_SCL*%
X101702641Y-41742641D03*
%TO.P,Brd1,1,GND*%
%TO.N,GND*%
X96622641Y-41742641D03*
%TO.P,Brd1,2,VCC*%
%TO.N,3V3*%
X99162641Y-41742641D03*
%TD*%
D14*
%TO.P,R1,1*%
%TO.N,Net-(D1-PadA)*%
X138242641Y-73822641D03*
%TO.P,R1,2*%
%TO.N,LED1*%
X138242641Y-68742641D03*
%TD*%
D15*
%TO.P,SW2,1,1*%
%TO.N,button2*%
X79516633Y-71275582D03*
%TO.P,SW2,2,2*%
%TO.N,GND*%
X76976633Y-64925582D03*
%TD*%
D14*
%TO.P,R3,1*%
%TO.N,Net-(D3-PadA)*%
X138242641Y-57362641D03*
%TO.P,R3,2*%
%TO.N,LED3*%
X138242641Y-52282641D03*
%TD*%
%TO.P,R4,1*%
%TO.N,Net-(D4-PadA)*%
X138242641Y-49381861D03*
%TO.P,R4,2*%
%TO.N,LED4*%
X138242641Y-44301861D03*
%TD*%
D15*
%TO.P,SW4,1,1*%
%TO.N,button4*%
X98551910Y-90313709D03*
%TO.P,SW4,2,2*%
%TO.N,GND*%
X96011910Y-83963709D03*
%TD*%
D14*
%TO.P,R2,1*%
%TO.N,Net-(D2-PadA)*%
X138242641Y-65841861D03*
%TO.P,R2,2*%
%TO.N,LED2*%
X138242641Y-60761861D03*
%TD*%
D15*
%TO.P,SW1,1,1*%
%TO.N,button1*%
X79487808Y-52186611D03*
%TO.P,SW1,2,2*%
%TO.N,GND*%
X76947808Y-45836611D03*
%TD*%
%TO.P,SW3,1,1*%
%TO.N,button3*%
X79518772Y-90313709D03*
%TO.P,SW3,2,2*%
%TO.N,GND*%
X76978772Y-83963709D03*
%TD*%
D16*
%TO.N,GND*%
X87242641Y-68742641D02*
X87242641Y-70742641D01*
X87242641Y-70742641D02*
X89242641Y-72742641D01*
X89242641Y-72742641D02*
X90972641Y-72742641D01*
%TO.N,OLED_SCL*%
X101702641Y-43742641D02*
X101702641Y-41980271D01*
%TO.N,3V3*%
X125322641Y-49822641D02*
X133482641Y-49822641D01*
%TO.N,Net-(D4-PadA)*%
X135881861Y-52742641D02*
X135881861Y-62103421D01*
%TO.N,OLED_SCL*%
X114242641Y-46742641D02*
X111242641Y-43742641D01*
%TO.N,Net-(D4-PadA)*%
X135881861Y-62103421D02*
X125242641Y-72742641D01*
%TO.N,GND*%
X96622641Y-41742641D02*
X99122641Y-39242641D01*
%TO.N,OLED_SCL*%
X118242641Y-57442641D02*
X114242641Y-53442641D01*
%TO.N,GND*%
X81021573Y-83963709D02*
X84242641Y-80742641D01*
X84242641Y-44742641D02*
X84242641Y-41742641D01*
X90346476Y-76742641D02*
X84242641Y-76742641D01*
X84242641Y-76742641D02*
X84242641Y-68742641D01*
X76976633Y-64925582D02*
X84242641Y-64925582D01*
X97242641Y-68742641D02*
X87242641Y-68742641D01*
%TO.N,3V3*%
X99162641Y-41742641D02*
X101162641Y-39742641D01*
%TO.N,GND*%
X96011910Y-83963709D02*
X96011910Y-82408075D01*
%TO.N,3V3*%
X115242641Y-39742641D02*
X125322641Y-49822641D01*
%TO.N,GND*%
X84242641Y-80742641D02*
X84242641Y-76742641D01*
X107242641Y-68742641D02*
X97242641Y-68742641D01*
%TO.N,Net-(D2-PadA)*%
X129292251Y-75742641D02*
X106512641Y-75742641D01*
%TO.N,Net-(D3-PadA)*%
X115512641Y-74742641D02*
X113877641Y-73107641D01*
%TO.N,GND*%
X98242641Y-72742641D02*
X100972641Y-72742641D01*
%TO.N,Net-(D2-PadA)*%
X103782641Y-73012641D02*
X103782641Y-72742641D01*
%TO.N,GND*%
X98242641Y-72742641D02*
X97242641Y-71742641D01*
X115742641Y-39242641D02*
X123782641Y-47282641D01*
X97242641Y-71742641D02*
X97242641Y-68742641D01*
%TO.N,OLED_SDA*%
X117402641Y-54902641D02*
X115242641Y-52742641D01*
%TO.N,Net-(D1-PadA)*%
X97512641Y-76742641D02*
X93512641Y-72742641D01*
%TO.N,OLED_SDA*%
X115242641Y-52742641D02*
X115242641Y-45742641D01*
%TO.N,OLED_SCL*%
X111242641Y-43742641D02*
X101702641Y-43742641D01*
%TO.N,GND*%
X77041778Y-45742641D02*
X84242641Y-45742641D01*
%TO.N,Net-(D2-PadA)*%
X138242641Y-66792251D02*
X129292251Y-75742641D01*
%TO.N,GND*%
X84242641Y-64925582D02*
X84242641Y-44742641D01*
%TO.N,Net-(D2-PadA)*%
X106512641Y-75742641D02*
X103782641Y-73012641D01*
%TO.N,GND*%
X84242641Y-41742641D02*
X96622641Y-41742641D01*
X111702641Y-72742641D02*
X109242641Y-72742641D01*
%TO.N,Net-(D1-PadA)*%
X131242641Y-76742641D02*
X97512641Y-76742641D01*
%TO.N,GND*%
X96011910Y-82408075D02*
X90346476Y-76742641D01*
X120972641Y-72742641D02*
X116972641Y-68742641D01*
%TO.N,Net-(D2-PadA)*%
X138242641Y-65841861D02*
X138242641Y-66792251D01*
%TO.N,GND*%
X76978772Y-83963709D02*
X81021573Y-83963709D01*
X116972641Y-68742641D02*
X107242641Y-68742641D01*
%TO.N,Net-(D3-PadA)*%
X137242641Y-63742641D02*
X126242641Y-74742641D01*
X138242641Y-57362641D02*
X137242641Y-57362641D01*
%TO.N,GND*%
X84242641Y-45742641D02*
X84242641Y-44742641D01*
X99122641Y-39242641D02*
X115742641Y-39242641D01*
X87242641Y-68742641D02*
X85242641Y-68742641D01*
X84242641Y-68742641D02*
X84242641Y-64925582D01*
X76947808Y-45836611D02*
X77041778Y-45742641D01*
%TO.N,Net-(D1-PadA)*%
X134162641Y-73822641D02*
X131242641Y-76742641D01*
%TO.N,GND*%
X109242641Y-72742641D02*
X107242641Y-70742641D01*
X123782641Y-47282641D02*
X133482641Y-47282641D01*
%TO.N,Net-(D4-PadA)*%
X125242641Y-72742641D02*
X123512641Y-72742641D01*
%TO.N,3V3*%
X101162641Y-39742641D02*
X115242641Y-39742641D01*
%TO.N,OLED_SDA*%
X111242641Y-41742641D02*
X104242641Y-41742641D01*
%TO.N,Net-(D4-PadA)*%
X138242641Y-50381861D02*
X135881861Y-52742641D01*
X138242641Y-49381861D02*
X138242641Y-50381861D01*
%TO.N,OLED_SDA*%
X115242641Y-45742641D02*
X111242641Y-41742641D01*
%TO.N,OLED_SCL*%
X114242641Y-53442641D02*
X114242641Y-46742641D01*
%TO.N,Net-(D1-PadA)*%
X138242641Y-73822641D02*
X134162641Y-73822641D01*
%TO.N,Net-(D3-PadA)*%
X137242641Y-57362641D02*
X137242641Y-63742641D01*
%TO.N,GND*%
X85242641Y-68742641D02*
X84242641Y-68742641D01*
%TO.N,Net-(D3-PadA)*%
X126242641Y-74742641D02*
X115512641Y-74742641D01*
%TO.N,GND*%
X107242641Y-70742641D02*
X107242641Y-68742641D01*
%TO.N,Net-(D3-PadA)*%
X113877641Y-73107641D02*
X114242641Y-72742641D01*
%TO.N,Net-(D1-PadA)*%
X93512641Y-72742641D02*
X94242641Y-72742641D01*
%TD*%
M02*
